<?xml version="1.0" encoding="UTF-8" standalone="no"?>
<!DOCTYPE svg PUBLIC "-//W3C//DTD SVG 1.1//EN" "http://www.w3.org/Graphics/SVG/1.1/DTD/svg11.dtd">
<svg width="100%" height="100%" viewBox="0 0 196 65" version="1.1" xmlns="http://www.w3.org/2000/svg" xmlns:xlink="http://www.w3.org/1999/xlink" xml:space="preserve" xmlns:serif="http://www.serif.com/" style="fill-rule:evenodd;clip-rule:evenodd;stroke-linejoin:round;stroke-miterlimit:2;">
    <g transform="matrix(1,0,0,1,-257.923,-17.2125)">
        <g transform="matrix(1,0,0,1,-5.75781,-58.7055)">
            <path d="M293.419,122.067L281.053,122.067C279.567,122.067 278.281,121.325 277.539,120.04L270.702,108.199C270.344,107.579 270.146,106.888 270.146,106.17C270.146,105.453 270.343,104.762 270.702,104.141L276.811,93.561C278.591,90.478 275.837,85.843 272.438,85.843L271.09,85.843C270.877,85.842 270.68,85.79 270.509,85.691C270.339,85.593 270.195,85.449 270.088,85.265L267.891,81.458C267.679,81.092 267.679,80.671 267.891,80.303C268.458,79.321 268.742,78.828 268.99,78.4C269.236,77.972 269.521,77.479 270.088,76.497C270.301,76.129 270.665,75.918 271.089,75.918L275.484,75.918C275.696,75.919 275.894,75.971 276.064,76.07C276.235,76.168 276.379,76.312 276.485,76.497L278.683,80.303C278.896,80.67 278.896,81.091 278.683,81.458C278.43,81.896 278.233,82.238 278.07,82.519C276.13,85.881 278.983,90.273 282.916,90.273L294.724,90.273C296.209,90.273 297.495,91.015 298.237,92.301L304.293,102.788C306.032,105.8 310.104,105.755 311.869,102.7L315.53,96.359C316.113,95.35 317.13,94.764 318.295,94.764L327.779,94.764C328.945,94.764 329.962,95.35 330.544,96.359L335.287,104.574C335.569,105.062 335.724,105.606 335.724,106.17C335.724,106.734 335.569,107.278 335.287,107.766L330.544,115.981C329.962,116.99 328.945,117.576 327.779,117.576L318.295,117.576C317.13,117.576 316.113,116.99 315.53,115.981L311.869,109.64C310.216,106.777 305.871,106.818 304.335,109.479C302.368,112.885 300.788,115.621 298.821,119.029C297.081,122.042 300.211,127.229 303.916,127.229L306.688,127.229C307.382,127.229 307.988,127.58 308.336,128.183L311.107,132.98C311.275,133.271 311.367,133.596 311.367,133.933C311.367,134.27 311.275,134.594 311.107,134.885L308.336,139.684C307.988,140.285 307.382,140.636 306.688,140.636L301.146,140.636C300.451,140.636 299.844,140.285 299.497,139.684L296.726,134.885C296.558,134.594 296.465,134.27 296.465,133.933C296.465,133.596 296.558,133.271 296.726,132.98L298.441,130.008C299.896,127.49 296.918,122.067 293.419,122.067ZM268.425,98.915L267.473,97.266C267.381,97.107 267.223,97.016 267.039,97.016L265.136,97.016C264.951,97.016 264.793,97.107 264.701,97.266L263.749,98.915C263.703,98.995 263.681,99.08 263.681,99.165C263.681,99.25 263.703,99.336 263.749,99.416L264.701,101.064C264.793,101.223 264.951,101.314 265.136,101.314L267.039,101.314C267.223,101.314 267.381,101.223 267.473,101.064L268.425,99.416C268.47,99.336 268.493,99.25 268.493,99.165C268.493,99.08 268.47,98.995 268.425,98.915ZM290.442,129.028L291.459,127.268C291.508,127.182 291.532,127.091 291.532,127C291.532,126.908 291.508,126.817 291.459,126.732L290.442,124.972C290.344,124.802 290.176,124.704 289.979,124.704L287.945,124.704C287.749,124.704 287.581,124.802 287.482,124.972L286.466,126.732C286.417,126.817 286.393,126.908 286.393,127C286.393,127.091 286.417,127.182 286.466,127.268L287.482,129.028C287.581,129.198 287.749,129.295 287.945,129.295L289.979,129.295C290.176,129.295 290.344,129.198 290.442,129.028ZM292.347,131.897L291.138,131.897C291.021,131.897 290.92,131.956 290.862,132.057L290.257,133.104C290.229,133.155 290.214,133.209 290.214,133.264C290.214,133.317 290.229,133.371 290.257,133.423L290.862,134.47C290.92,134.57 291.021,134.629 291.138,134.629L292.347,134.629C292.464,134.629 292.563,134.57 292.622,134.47L293.227,133.423C293.256,133.371 293.271,133.317 293.271,133.264C293.271,133.209 293.256,133.155 293.227,133.104L292.622,132.057C292.563,131.956 292.464,131.897 292.347,131.897ZM312.613,94.342C312.932,94.342 313.205,94.184 313.363,93.909L315.012,91.054C315.091,90.916 315.131,90.768 315.131,90.621C315.131,90.473 315.091,90.325 315.012,90.187L313.363,87.332C313.205,87.057 312.932,86.899 312.613,86.899L309.316,86.899C308.998,86.899 308.725,87.057 308.566,87.332L306.918,90.187C306.838,90.325 306.799,90.473 306.799,90.621C306.799,90.768 306.838,90.916 306.918,91.054L308.566,93.909C308.725,94.184 308.998,94.342 309.316,94.342L312.613,94.342ZM306.291,138.848C306.59,138.848 306.836,138.706 306.986,138.447L309.36,134.334C309.432,134.211 309.473,134.075 309.473,133.933C309.473,133.79 309.432,133.654 309.36,133.531L306.986,129.418C306.836,129.159 306.59,129.019 306.291,129.019L301.542,129.019C301.243,129.019 300.996,129.159 300.847,129.418L298.472,133.531C298.401,133.654 298.36,133.79 298.36,133.933C298.36,134.075 298.401,134.211 298.472,134.334L300.847,138.447C300.996,138.706 301.243,138.848 301.542,138.848L306.291,138.848ZM327.102,114.649C327.638,114.649 328.081,114.394 328.349,113.93L332.414,106.89C332.541,106.669 332.614,106.426 332.614,106.17C332.614,105.914 332.541,105.67 332.414,105.45L328.349,98.41C328.081,97.946 327.638,97.69 327.102,97.69L318.973,97.69C318.438,97.69 317.994,97.946 317.726,98.41L313.66,105.45C313.533,105.67 313.461,105.914 313.461,106.17C313.461,106.426 313.533,106.669 313.66,106.89L317.726,113.93C317.994,114.394 318.438,114.649 318.973,114.649L327.102,114.649ZM293.746,118.937C294.713,118.937 295.531,118.464 296.016,117.627L301.874,107.48C302.105,107.079 302.235,106.634 302.235,106.17C302.235,105.706 302.105,105.261 301.874,104.86L296.016,94.713C295.531,93.876 294.713,93.404 293.746,93.404L282.03,93.404C281.063,93.404 280.244,93.876 279.761,94.713L273.902,104.86C273.67,105.261 273.54,105.706 273.54,106.17C273.54,106.634 273.67,107.079 273.902,107.48L279.761,117.627C280.244,118.464 281.063,118.937 282.03,118.937L293.746,118.937Z" style="fill:rgb(255,185,9);"/>
        </g>
        <g transform="matrix(1,0,0,1,-5.75781,-58.7055)">
            <path d="M294.409,115.364L299.111,107.221C299.297,106.9 299.401,106.543 299.401,106.17C299.401,105.798 299.297,105.44 299.111,105.119L294.409,96.977C294.021,96.305 293.364,95.926 292.588,95.926L283.188,95.926C282.412,95.926 281.754,96.305 281.366,96.977L276.665,105.119C276.479,105.44 276.375,105.798 276.375,106.17C276.375,106.543 276.479,106.9 276.665,107.221L281.366,115.364C281.754,116.036 282.412,116.415 283.188,116.415L292.588,116.415C293.364,116.415 294.021,116.036 294.409,115.364ZM285.307,99.519L288.179,99.52C288.593,99.519 288.929,99.183 288.928,98.769C288.928,98.354 288.591,98.019 288.177,98.019L285.304,98.019C284.89,98.02 284.554,98.356 284.555,98.77C284.556,99.184 284.892,99.52 285.307,99.519ZM289.882,98.77C289.883,99.185 290.219,99.52 290.633,99.52L291.892,99.519C292.307,99.519 292.642,99.183 292.641,98.768C292.641,98.354 292.304,98.019 291.89,98.019L290.631,98.019C290.217,98.019 289.882,98.356 289.882,98.77Z" style="fill:rgb(255,182,0);"/>
        </g>
        <g transform="matrix(1,0,0,1,-5.75781,-58.7055)">
            <path d="M315.608,106.74L318.829,112.318C319.041,112.686 319.393,112.889 319.817,112.889L326.258,112.889C326.682,112.889 327.033,112.686 327.246,112.318L330.466,106.74C330.567,106.566 330.625,106.373 330.625,106.17C330.625,105.968 330.567,105.774 330.466,105.599L327.246,100.021C327.033,99.655 326.682,99.452 326.258,99.452L319.817,99.452C319.393,99.452 319.041,99.655 318.829,100.021L315.608,105.599C315.507,105.774 315.449,105.968 315.449,106.17C315.449,106.373 315.508,106.566 315.608,106.74ZM321.671,101.681L323.546,101.681C323.815,101.68 324.035,101.461 324.034,101.19C324.034,100.92 323.814,100.702 323.544,100.702L321.67,100.702C321.399,100.703 321.181,100.922 321.181,101.192C321.182,101.462 321.4,101.681 321.671,101.681ZM324.657,101.192C324.657,101.462 324.877,101.682 325.147,101.681L325.968,101.681C326.238,101.68 326.458,101.461 326.457,101.19C326.456,100.92 326.237,100.702 325.967,100.702L325.146,100.702C324.876,100.702 324.656,100.922 324.657,101.192Z" style="fill:rgb(255,182,0);"/>
        </g>
        <g transform="matrix(1,0,0,1,-5.75781,-58.7055)">
            <path d="M307.818,133.646L306.116,130.698C306.009,130.512 305.832,130.41 305.618,130.41L302.215,130.41C302,130.41 301.824,130.512 301.717,130.698L300.015,133.646C299.964,133.733 299.935,133.831 299.935,133.933C299.935,134.035 299.964,134.132 300.015,134.22L301.717,137.168C301.824,137.354 302,137.455 302.215,137.455L305.618,137.455C305.832,137.455 306.009,137.354 306.116,137.168L307.818,134.22C307.869,134.132 307.898,134.035 307.898,133.933C307.898,133.831 307.869,133.733 307.818,133.646ZM302.989,131.77L304.076,131.77C304.233,131.77 304.36,131.643 304.36,131.486C304.359,131.329 304.232,131.202 304.075,131.203L302.988,131.203C302.832,131.203 302.705,131.33 302.705,131.487C302.705,131.644 302.832,131.771 302.989,131.77ZM304.721,131.487C304.721,131.644 304.849,131.771 305.005,131.77L305.48,131.77C305.638,131.77 305.766,131.643 305.765,131.486C305.765,131.329 305.637,131.202 305.48,131.203L305.004,131.203C304.848,131.203 304.721,131.33 304.721,131.487Z" style="fill:rgb(255,182,0);"/>
        </g>
        <g transform="matrix(1,0,0,1,291.936,11.1025)">
            <text x="51.35px" y="45.331px" style="font-family:'HarabaraMaisBold-HarabaraMaisBold', 'Harabara Mais Demo', sans-serif;font-size:24px;fill:rgb(255,183,0);">open</text>
        </g>
        <g transform="matrix(1,0,0,1,344.059,11.1025)">
            <text x="51.35px" y="45.331px" style="font-family:'HarabaraMaisBold-HarabaraMaisBold', 'Harabara Mais Demo', sans-serif;font-size:24px;fill:white;">cspm</text>
        </g>
    </g>
</svg>
