<?xml version="1.0" encoding="UTF-8" standalone="no"?>
<!DOCTYPE svg PUBLIC "-//W3C//DTD SVG 1.1//EN" "http://www.w3.org/Graphics/SVG/1.1/DTD/svg11.dtd">
<svg width="100%" height="100%" viewBox="0 0 46 42" version="1.1" xmlns="http://www.w3.org/2000/svg" xmlns:xlink="http://www.w3.org/1999/xlink" xml:space="preserve" xmlns:serif="http://www.serif.com/" style="fill-rule:evenodd;clip-rule:evenodd;stroke-linejoin:round;stroke-miterlimit:2;">
    <g transform="matrix(1,0,0,1,-2.04118,-4.37553)">
        <g transform="matrix(0.637364,0,0,0.637364,-38.5271,-44.0119)">
            <path d="M93.388,122.067L81.021,122.067C79.537,122.067 78.251,121.325 77.507,120.04L70.67,108.199C70.313,107.579 70.115,106.888 70.115,106.17C70.115,105.453 70.312,104.762 70.67,104.141L76.78,93.561C78.56,90.478 75.806,85.843 72.408,85.843L71.058,85.843C70.846,85.842 70.649,85.79 70.478,85.691C70.308,85.593 70.164,85.449 70.057,85.265L67.86,81.458C67.648,81.092 67.648,80.671 67.86,80.303C68.427,79.321 68.711,78.828 68.959,78.4C69.206,77.972 69.49,77.479 70.057,76.497C70.27,76.129 70.634,75.918 71.058,75.918L75.454,75.918C75.666,75.919 75.863,75.971 76.033,76.07C76.205,76.168 76.348,76.312 76.455,76.497L78.652,80.303C78.864,80.67 78.865,81.091 78.652,81.458C78.399,81.896 78.203,82.238 78.04,82.519C76.099,85.881 78.953,90.273 82.885,90.273L94.693,90.273C96.177,90.273 97.464,91.015 98.207,92.301L104.263,102.788C106.002,105.8 110.074,105.755 111.838,102.7L115.5,96.359C116.082,95.35 117.1,94.764 118.264,94.764L127.749,94.764C128.914,94.764 129.931,95.35 130.514,96.359L135.257,104.574C135.539,105.062 135.693,105.606 135.693,106.17C135.693,106.734 135.538,107.278 135.257,107.766L130.514,115.981C129.932,116.99 128.914,117.576 127.749,117.576L118.264,117.576C117.1,117.576 116.082,116.99 115.5,115.981L111.839,109.64C110.186,106.777 105.841,106.818 104.305,109.479C102.338,112.885 100.758,115.621 98.791,119.029C97.05,122.042 100.181,127.229 103.886,127.229L106.656,127.229C107.352,127.229 107.958,127.58 108.306,128.183L111.076,132.98C111.244,133.271 111.337,133.596 111.337,133.933C111.337,134.27 111.244,134.594 111.076,134.885L108.306,139.684C107.958,140.285 107.352,140.636 106.656,140.636L101.115,140.636C100.42,140.636 99.813,140.285 99.465,139.684L96.695,134.885C96.527,134.594 96.434,134.27 96.434,133.933C96.434,133.596 96.527,133.271 96.695,132.98L98.411,130.008C99.865,127.49 96.887,122.067 93.388,122.067ZM68.394,98.915L67.441,97.266C67.349,97.107 67.192,97.016 67.007,97.016L65.104,97.016C64.92,97.016 64.762,97.107 64.67,97.266L63.718,98.915C63.672,98.995 63.65,99.08 63.65,99.165C63.65,99.25 63.672,99.336 63.718,99.416L64.67,101.064C64.762,101.223 64.92,101.314 65.104,101.314L67.007,101.314C67.192,101.314 67.349,101.223 67.441,101.064L68.394,99.416C68.439,99.336 68.462,99.25 68.462,99.165C68.462,99.08 68.439,98.995 68.394,98.915ZM90.412,129.028L91.428,127.268C91.477,127.182 91.502,127.091 91.502,127C91.502,126.908 91.477,126.817 91.428,126.732L90.412,124.972C90.313,124.802 90.145,124.704 89.948,124.704L87.915,124.704C87.718,124.704 87.55,124.802 87.452,124.972L86.435,126.732C86.386,126.817 86.362,126.908 86.362,127C86.362,127.091 86.386,127.182 86.435,127.268L87.452,129.028C87.55,129.198 87.718,129.295 87.915,129.295L89.948,129.295C90.145,129.295 90.313,129.198 90.412,129.028ZM92.315,131.897L91.107,131.897C90.99,131.897 90.889,131.956 90.832,132.057L90.226,133.104C90.197,133.155 90.183,133.209 90.183,133.264C90.183,133.317 90.197,133.371 90.226,133.423L90.832,134.47C90.889,134.57 90.99,134.629 91.107,134.629L92.315,134.629C92.433,134.629 92.533,134.57 92.591,134.47L93.196,133.423C93.225,133.371 93.24,133.317 93.24,133.264C93.24,133.209 93.225,133.155 93.196,133.104L92.591,132.057C92.533,131.956 92.433,131.897 92.315,131.897ZM112.582,94.342C112.901,94.342 113.174,94.184 113.333,93.909L114.981,91.054C115.061,90.916 115.101,90.768 115.101,90.621C115.101,90.473 115.061,90.325 114.981,90.187L113.333,87.332C113.174,87.057 112.901,86.899 112.582,86.899L109.286,86.899C108.968,86.899 108.694,87.057 108.535,87.332L106.888,90.187C106.808,90.325 106.768,90.473 106.768,90.621C106.768,90.768 106.808,90.916 106.888,91.054L108.535,93.909C108.694,94.184 108.968,94.342 109.286,94.342L112.582,94.342ZM106.26,138.848C106.56,138.848 106.806,138.706 106.955,138.447L109.33,134.334C109.401,134.211 109.441,134.075 109.441,133.933C109.441,133.79 109.401,133.654 109.33,133.531L106.955,129.418C106.806,129.159 106.56,129.019 106.26,129.019L101.512,129.019C101.213,129.019 100.966,129.159 100.816,129.418L98.441,133.531C98.371,133.654 98.33,133.79 98.33,133.933C98.33,134.075 98.371,134.211 98.441,134.334L100.816,138.447C100.966,138.706 101.213,138.848 101.512,138.848L106.26,138.848ZM127.071,114.649C127.607,114.649 128.05,114.394 128.317,113.93L132.384,106.89C132.511,106.669 132.583,106.426 132.583,106.17C132.583,105.914 132.511,105.67 132.384,105.45L128.317,98.41C128.05,97.946 127.607,97.69 127.071,97.69L118.942,97.69C118.407,97.69 117.963,97.946 117.695,98.41L113.63,105.45C113.503,105.67 113.431,105.914 113.431,106.17C113.431,106.426 113.503,106.669 113.63,106.89L117.695,113.93C117.963,114.394 118.407,114.649 118.942,114.649L127.071,114.649ZM93.714,118.937C94.681,118.937 95.501,118.464 95.984,117.627L101.844,107.48C102.075,107.079 102.205,106.634 102.205,106.17C102.205,105.706 102.075,105.261 101.844,104.86L95.984,94.713C95.501,93.876 94.681,93.404 93.714,93.404L81.999,93.404C81.033,93.404 80.213,93.876 79.73,94.713L73.871,104.86C73.639,105.261 73.509,105.706 73.509,106.17C73.509,106.634 73.639,107.079 73.871,107.48L79.73,117.627C80.213,118.464 81.033,118.937 81.999,118.937L93.714,118.937Z" style="fill:rgb(255,186,10);"/>
        </g>
        <g transform="matrix(0.637364,0,0,0.637364,-38.5271,-44.0119)">
            <path d="M94.378,115.364L99.081,107.221C99.265,106.9 99.371,106.543 99.371,106.17C99.371,105.798 99.266,105.44 99.081,105.119L94.378,96.977C93.991,96.305 93.334,95.926 92.557,95.926L83.156,95.926C82.38,95.926 81.723,96.305 81.335,96.977L76.634,105.119C76.448,105.44 76.344,105.798 76.344,106.17C76.344,106.543 76.448,106.9 76.634,107.221L81.335,115.364C81.723,116.036 82.38,116.415 83.156,116.415L92.557,116.415C93.334,116.415 93.991,116.036 94.378,115.364ZM85.275,99.519L88.148,99.52C88.562,99.519 88.898,99.183 88.897,98.769C88.896,98.354 88.56,98.019 88.146,98.019L85.273,98.019C84.859,98.02 84.523,98.356 84.524,98.77C84.524,99.184 84.861,99.52 85.275,99.519ZM89.851,98.77C89.852,99.185 90.188,99.52 90.602,99.52L91.861,99.519C92.275,99.519 92.611,99.183 92.61,98.768C92.609,98.354 92.273,98.019 91.859,98.019L90.6,98.019C90.186,98.019 89.851,98.356 89.851,98.77Z" style="fill:rgb(255,182,0);"/>
        </g>
        <g transform="matrix(0.637364,0,0,0.637364,-38.5271,-44.0119)">
            <path d="M115.578,106.74L118.798,112.318C119.011,112.686 119.362,112.889 119.787,112.889L126.227,112.889C126.651,112.889 127.003,112.686 127.215,112.318L130.436,106.74C130.535,106.566 130.593,106.373 130.593,106.17C130.593,105.968 130.537,105.774 130.436,105.599L127.215,100.021C127.003,99.655 126.651,99.452 126.227,99.452L119.787,99.452C119.362,99.452 119.011,99.655 118.798,100.021L115.578,105.599C115.477,105.774 115.419,105.968 115.419,106.17C115.419,106.373 115.477,106.566 115.578,106.74ZM121.641,101.681L123.516,101.681C123.785,101.68 124.004,101.461 124.004,101.19C124.004,100.92 123.784,100.702 123.514,100.702L121.64,100.702C121.369,100.703 121.15,100.922 121.15,101.192C121.151,101.462 121.37,101.681 121.641,101.681ZM124.627,101.192C124.627,101.462 124.847,101.682 125.117,101.681L125.938,101.681C126.208,101.68 126.427,101.461 126.427,101.19C126.426,100.92 126.207,100.702 125.937,100.702L125.115,100.702C124.846,100.702 124.626,100.922 124.627,101.192Z" style="fill:rgb(255,182,0);"/>
        </g>
        <g transform="matrix(0.637364,0,0,0.637364,-38.5271,-44.0119)">
            <path d="M107.788,133.646L106.086,130.698C105.979,130.512 105.802,130.41 105.588,130.41L102.184,130.41C101.97,130.41 101.793,130.512 101.686,130.698L99.984,133.646C99.933,133.733 99.904,133.831 99.904,133.933C99.904,134.035 99.933,134.132 99.984,134.22L101.686,137.168C101.793,137.354 101.97,137.455 102.184,137.455L105.588,137.455C105.802,137.455 105.979,137.354 106.086,137.168L107.788,134.22C107.839,134.132 107.868,134.035 107.868,133.933C107.868,133.831 107.839,133.733 107.788,133.646ZM102.959,131.77L104.046,131.77C104.203,131.77 104.33,131.643 104.33,131.486C104.329,131.329 104.202,131.202 104.045,131.203L102.958,131.203C102.801,131.203 102.674,131.33 102.674,131.487C102.675,131.644 102.802,131.771 102.959,131.77ZM104.69,131.487C104.69,131.644 104.818,131.771 104.975,131.77L105.45,131.77C105.607,131.77 105.734,131.643 105.734,131.486C105.734,131.329 105.606,131.202 105.45,131.203L104.974,131.203C104.817,131.203 104.689,131.33 104.69,131.487Z" style="fill:rgb(255,182,0);"/>
        </g>
    </g>
</svg>
